# xmcd CD database file
#
# Track frame offsets:
#	150
#	19715
#	34062
#	47105
#	57475
#	76100
#	89270
#	106465
#	123420
#	142000
#	154172
#
# Disc length: 2335 seconds
#
# Revision: 4
# Processed by: cddbd v1.5.2PL0 Copyright (c) Steve Scherf et al.
# Submitted via: CDex 1.51
#
DISCID=8d091d0b
DTITLE=Jorma Kaukonen with Tom Hobson - Quah
DYEAR=1997
DGENRE=Blues
TTITLE0=Genesis
TTITLE1=I'll Be All Right
TTITLE2=Song For The North Star
TTITLE3=I'll Let You Know Before I Leave
TTITLE4=Flying Clouds
TTITLE5=Another Man Done Gone
TTITLE6=I Am The Light of The World
TTITLE7=Police Dog Blues
TTITLE8=Blue Prelude
TTITLE9=Sweet Hawaiian Sunshine
TTITLE10=Hamar Promenade
EXTD=YEAR: 1997
EXTT0=
EXTT1=
EXTT2=
EXTT3=
EXTT4=
EXTT5=
EXTT6=
EXTT7=
EXTT8=
EXTT9=
EXTT10=
PLAYORDER=
